<?xml version="1.0" standalone="no"?>
 <!DOCTYPE svg PUBLIC "-//W3C//DTD SVG 1.1//EN" 
 "http://www.w3.org/Graphics/SVG/1.1/DTD/svg11.dtd"> 
<svg xmlns="http://www.w3.org/2000/svg" version="1.1" 
    width="29.7002cm" height="21.0007cm" viewBox="0 0 116930 82680 ">
<title>SVG Picture created as multivibrator-B.Cu.svg date 2018/09/30 16:22:26 </title>
  <desc>Picture generated by PCBNEW </desc>
<g style="fill:#000000; fill-opacity:1;stroke:#000000; stroke-opacity:1;
stroke-linecap:round; stroke-linejoin:round; "
 transform="translate(0 0) scale(1 1)">
</g>
<g style="fill:#000000; fill-opacity:0.0; 
stroke:#000000; stroke-width:-0.000393701; stroke-opacity:1; 
stroke-linecap:round; stroke-linejoin:round;">
</g>
<g style="fill:#000000; fill-opacity:1.0; 
stroke:#000000; stroke-width:39.3701; stroke-opacity:1; 
stroke-linecap:round; stroke-linejoin:round;">
<rect x="35925.2" y="13442.9" width="22637.8" height="19372" rx="0" />
</g>
<g style="fill:#FFFFFF; fill-opacity:1.0; 
stroke:#FFFFFF; stroke-width:39.3701; stroke-opacity:1; 
stroke-linecap:round; stroke-linejoin:round;">
</g>
<g style="fill:#FFFFFF; fill-opacity:1.0; 
stroke:#FFFFFF; stroke-width:0; stroke-opacity:1; 
stroke-linecap:round; stroke-linejoin:round;">
<polyline style="fill-rule:evenodd;"
points="42238,25364
42248,25366
42257,25368
42266,25371
42275,25375
42284,25380
42291,25386
42298,25393
42305,25400
42311,25407
42316,25416
42320,25424
42323,25434
42325,25443
42327,25452
42327,25462
42327,25954
42327,25964
42325,25973
42323,25983
42320,25992
42316,26001
42311,26009
42305,26017
42298,26024
42291,26030
42284,26036
42275,26041
42266,26045
42257,26048
42248,26051
42238,26052
42229,26053
41865,26053
41855,26052
41845,26051
41836,26048
41827,26045
41818,26041
41810,26036
41802,26030
41795,26024
41789,26017
41783,26009
41778,26001
41774,25992
41770,25983
41768,25973
41767,25964
41766,25954
41766,25462
41767,25452
41768,25443
41770,25434
41774,25424
41778,25416
41783,25407
41789,25400
41795,25393
41802,25386
41810,25380
41818,25375
41827,25371
41836,25368
41845,25366
41855,25364
41865,25364
42229,25364
42238,25364
" /> 
<polyline style="fill-rule:evenodd;"
points="41067,25364
41077,25366
41086,25368
41095,25371
41104,25375
41112,25380
41120,25386
41127,25393
41134,25400
41139,25407
41144,25416
41149,25424
41152,25434
41154,25443
41156,25452
41156,25462
41156,25954
41156,25964
41154,25973
41152,25983
41149,25992
41144,26001
41139,26009
41134,26017
41127,26024
41120,26030
41112,26036
41104,26041
41095,26045
41086,26048
41077,26051
41067,26052
41058,26053
40693,26053
40684,26052
40674,26051
40665,26048
40656,26045
40647,26041
40639,26036
40631,26030
40624,26024
40617,26017
40612,26009
40607,26001
40602,25992
40599,25983
40597,25973
40595,25964
40595,25954
40595,25462
40595,25452
40597,25443
40599,25434
40602,25424
40607,25416
40612,25407
40617,25400
40624,25393
40631,25386
40639,25380
40647,25375
40656,25371
40665,25368
40674,25366
40684,25364
40693,25364
41058,25364
41067,25364
" /> 
<polyline style="fill-rule:evenodd;"
points="44758,25443
44768,25444
44777,25447
44786,25450
44795,25454
44803,25459
44811,25465
44818,25471
44825,25478
44830,25486
44835,25494
44839,25503
44843,25512
44845,25522
44846,25531
44847,25541
44847,26033
44846,26043
44845,26052
44843,26062
44839,26071
44835,26079
44830,26088
44825,26095
44818,26103
44811,26109
44803,26115
44795,26120
44786,26124
44777,26127
44768,26129
44758,26131
44749,26131
44384,26131
44375,26131
44365,26129
44356,26127
44347,26124
44338,26120
44330,26115
44322,26109
44315,26103
44308,26095
44303,26088
44298,26079
44293,26071
44290,26062
44288,26052
44286,26043
44286,26033
44286,25541
44286,25531
44288,25522
44290,25512
44293,25503
44298,25494
44303,25486
44308,25478
44315,25471
44322,25465
44330,25459
44338,25454
44347,25450
44356,25447
44365,25444
44375,25443
44384,25442
44749,25442
44758,25443
" /> 
<polyline style="fill-rule:evenodd;"
points="45929,25443
45939,25444
45948,25447
45957,25450
45966,25454
45974,25459
45982,25465
45989,25471
45996,25478
46002,25486
46007,25494
46011,25503
46014,25512
46016,25522
46018,25531
46018,25541
46018,26033
46018,26043
46016,26052
46014,26062
46011,26071
46007,26079
46002,26088
45996,26095
45989,26103
45982,26109
45974,26115
45966,26120
45957,26124
45948,26127
45939,26129
45929,26131
45920,26131
45556,26131
45546,26131
45536,26129
45527,26127
45518,26124
45509,26120
45501,26115
45493,26109
45486,26103
45480,26095
45474,26088
45469,26079
45465,26071
45461,26062
45459,26052
45458,26043
45457,26033
45457,25541
45458,25531
45459,25522
45461,25512
45465,25503
45469,25494
45474,25486
45480,25478
45486,25471
45493,25465
45501,25459
45509,25454
45518,25450
45527,25447
45536,25444
45546,25443
45556,25442
45920,25442
45929,25443
" /> 
<polyline style="fill-rule:evenodd;"
points="40314,21102
40314,20393
41023,20393
41023,21102
40314,21102
" /> 
<circle cx="41669.3" cy="20748" r="354.331" /> 
</g>
<g style="fill:#FFFFFF; fill-opacity:1.0; 
stroke:#FFFFFF; stroke-width:39.3701; stroke-opacity:1; 
stroke-linecap:round; stroke-linejoin:round;">
</g>
<g style="fill:#FFFFFF; fill-opacity:1.0; 
stroke:#FFFFFF; stroke-width:0; stroke-opacity:1; 
stroke-linecap:round; stroke-linejoin:round;">
<circle cx="44984.3" cy="20748" r="354.331" /> 
</g>
<g style="fill:#FFFFFF; fill-opacity:1.0; 
stroke:#FFFFFF; stroke-width:39.3701; stroke-opacity:1; 
stroke-linecap:round; stroke-linejoin:round;">
</g>
<g style="fill:#FFFFFF; fill-opacity:1.0; 
stroke:#FFFFFF; stroke-width:0; stroke-opacity:1; 
stroke-linecap:round; stroke-linejoin:round;">
<polyline style="fill-rule:evenodd;"
points="46338,20393
46338,21102
45629,21102
45629,20393
46338,20393
" /> 
<polyline style="fill-rule:evenodd;"
points="47933,24783
47933,24114
48602,24114
48602,24783
47933,24783
" /> 
</g>
<g style="fill:#FFFFFF; fill-opacity:1.0; 
stroke:#FFFFFF; stroke-width:669.291; stroke-opacity:1; 
stroke-linecap:round; stroke-linejoin:round;">
</g>
<g style="fill:#FFFFFF; fill-opacity:0.0; 
stroke:#FFFFFF; stroke-width:669.291; stroke-opacity:1; 
stroke-linecap:round; stroke-linejoin:round;">
<path d="M48267 25448
L48267 25448
" />
</g>
<g style="fill:#FFFFFF; fill-opacity:0.0; 
stroke:#FFFFFF; stroke-width:0; stroke-opacity:1; 
stroke-linecap:round; stroke-linejoin:round;">
</g>
<g style="fill:#FFFFFF; fill-opacity:1.0; 
stroke:#FFFFFF; stroke-width:0; stroke-opacity:1; 
stroke-linecap:round; stroke-linejoin:round;">
<polyline style="fill-rule:evenodd;"
points="40846,27509
41437,27509
41437,27923
40846,27923
40846,27509
" /> 
</g>
<g style="fill:#FFFFFF; fill-opacity:1.0; 
stroke:#FFFFFF; stroke-width:413.386; stroke-opacity:1; 
stroke-linecap:round; stroke-linejoin:round;">
</g>
<g style="fill:#FFFFFF; fill-opacity:0.0; 
stroke:#FFFFFF; stroke-width:413.386; stroke-opacity:1; 
stroke-linecap:round; stroke-linejoin:round;">
<path d="M41230 28716
L41053 28716
" />
<path d="M41230 28216
L41053 28216
" />
<path d="M45836 28216
L45659 28216
" />
<path d="M45836 28716
L45659 28716
" />
</g>
<g style="fill:#FFFFFF; fill-opacity:0.0; 
stroke:#FFFFFF; stroke-width:0; stroke-opacity:1; 
stroke-linecap:round; stroke-linejoin:round;">
</g>
<g style="fill:#FFFFFF; fill-opacity:1.0; 
stroke:#FFFFFF; stroke-width:0; stroke-opacity:1; 
stroke-linecap:round; stroke-linejoin:round;">
<polyline style="fill-rule:evenodd;"
points="45452,27509
46043,27509
46043,27923
45452,27923
45452,27509
" /> 
<polyline style="fill-rule:evenodd;"
points="40093,22283
40102,22285
40112,22287
40121,22290
40130,22295
40138,22300
40146,22305
40153,22312
40159,22319
40165,22327
40170,22335
40174,22344
40177,22353
40180,22362
40181,22372
40182,22381
40182,22746
40181,22755
40180,22765
40177,22774
40174,22783
40170,22792
40165,22800
40159,22808
40153,22815
40146,22822
40138,22827
40130,22832
40121,22836
40112,22840
40102,22842
40093,22844
40083,22844
39591,22844
39581,22844
39572,22842
39562,22840
39553,22836
39545,22832
39536,22827
39529,22822
39521,22815
39515,22808
39509,22800
39504,22792
39500,22783
39497,22774
39495,22765
39493,22755
39493,22746
39493,22381
39493,22372
39495,22362
39497,22353
39500,22344
39504,22335
39509,22327
39515,22319
39521,22312
39529,22305
39536,22300
39545,22295
39553,22290
39562,22287
39572,22285
39581,22283
39591,22283
40083,22283
40093,22283
" /> 
<polyline style="fill-rule:evenodd;"
points="40093,23455
40102,23456
40112,23458
40121,23462
40130,23466
40138,23471
40146,23477
40153,23483
40159,23490
40165,23498
40170,23506
40174,23515
40177,23524
40180,23533
40181,23543
40182,23553
40182,23917
40181,23926
40180,23936
40177,23945
40174,23954
40170,23963
40165,23972
40159,23979
40153,23986
40146,23993
40138,23999
40130,24004
40121,24008
40112,24011
40102,24013
40093,24015
40083,24015
39591,24015
39581,24015
39572,24013
39562,24011
39553,24008
39545,24004
39536,23999
39529,23993
39521,23986
39515,23979
39509,23972
39504,23963
39500,23954
39497,23945
39495,23936
39493,23926
39493,23917
39493,23553
39493,23543
39495,23533
39497,23524
39500,23515
39504,23506
39509,23498
39515,23490
39521,23483
39529,23477
39536,23471
39545,23466
39553,23462
39562,23458
39572,23456
39581,23455
39591,23454
40083,23454
40093,23455
" /> 
<polyline style="fill-rule:evenodd;"
points="42696,23533
42706,23535
42715,23537
42724,23540
42733,23545
42741,23550
42749,23555
42756,23562
42763,23569
42768,23577
42773,23585
42777,23594
42781,23603
42783,23612
42784,23622
42785,23631
42785,23996
42784,24005
42783,24015
42781,24024
42777,24033
42773,24042
42768,24050
42763,24058
42756,24065
42749,24072
42741,24077
42733,24082
42724,24086
42715,24090
42706,24092
42696,24094
42687,24094
42194,24094
42185,24094
42175,24092
42166,24090
42157,24086
42148,24082
42140,24077
42132,24072
42125,24065
42118,24058
42113,24050
42108,24042
42103,24033
42100,24024
42098,24015
42096,24005
42096,23996
42096,23631
42096,23622
42098,23612
42100,23603
42103,23594
42108,23585
42113,23577
42118,23569
42125,23562
42132,23555
42140,23550
42148,23545
42157,23540
42166,23537
42175,23535
42185,23533
42194,23533
42687,23533
42696,23533
" /> 
<polyline style="fill-rule:evenodd;"
points="42696,22362
42706,22364
42715,22366
42724,22369
42733,22373
42741,22378
42749,22384
42756,22391
42763,22398
42768,22405
42773,22414
42777,22422
42781,22432
42783,22441
42784,22450
42785,22460
42785,22824
42784,22834
42783,22844
42781,22853
42777,22862
42773,22871
42768,22879
42763,22887
42756,22894
42749,22900
42741,22906
42733,22911
42724,22915
42715,22918
42706,22921
42696,22922
42687,22923
42194,22923
42185,22922
42175,22921
42166,22918
42157,22915
42148,22911
42140,22906
42132,22900
42125,22894
42118,22887
42113,22879
42108,22871
42103,22862
42100,22853
42098,22844
42096,22834
42096,22824
42096,22460
42096,22450
42098,22441
42100,22432
42103,22422
42108,22414
42113,22405
42118,22398
42125,22391
42132,22384
42140,22378
42148,22373
42157,22369
42166,22366
42175,22364
42185,22362
42194,22362
42687,22362
42696,22362
" /> 
<polyline style="fill-rule:evenodd;"
points="44547,22357
44556,22359
44565,22361
44575,22364
44583,22368
44592,22373
44599,22379
44606,22386
44613,22393
44619,22401
44624,22409
44628,22418
44631,22427
44633,22436
44635,22446
44635,22455
44635,22819
44635,22829
44633,22839
44631,22848
44628,22857
44624,22866
44619,22874
44613,22882
44606,22889
44599,22895
44592,22901
44583,22906
44575,22910
44565,22914
44556,22916
44547,22917
44537,22918
44045,22918
44035,22917
44026,22916
44016,22914
44007,22910
43998,22906
43990,22901
43982,22895
43975,22889
43969,22882
43963,22874
43958,22866
43954,22857
43951,22848
43948,22839
43947,22829
43946,22819
43946,22455
43947,22446
43948,22436
43951,22427
43954,22418
43958,22409
43963,22401
43969,22393
43975,22386
43982,22379
43990,22373
43998,22368
44007,22364
44016,22361
44026,22359
44035,22357
44045,22357
44537,22357
44547,22357
" /> 
<polyline style="fill-rule:evenodd;"
points="44547,23529
44556,23530
44565,23532
44575,23536
44583,23540
44592,23545
44599,23550
44606,23557
44613,23564
44619,23572
44624,23580
44628,23589
44631,23598
44633,23607
44635,23617
44635,23626
44635,23991
44635,24000
44633,24010
44631,24019
44628,24028
44624,24037
44619,24045
44613,24053
44606,24060
44599,24067
44592,24072
44583,24077
44575,24082
44565,24085
44556,24087
44547,24089
44537,24089
44045,24089
44035,24089
44026,24087
44016,24085
44007,24082
43998,24077
43990,24072
43982,24067
43975,24060
43969,24053
43963,24045
43958,24037
43954,24028
43951,24019
43948,24010
43947,24000
43946,23991
43946,23626
43947,23617
43948,23607
43951,23598
43954,23589
43958,23580
43963,23572
43969,23564
43975,23557
43982,23550
43990,23545
43998,23540
44007,23536
44016,23532
44026,23530
44035,23529
44045,23528
44537,23528
44547,23529
" /> 
<polyline style="fill-rule:evenodd;"
points="46751,23494
46761,23495
46770,23498
46779,23501
46788,23505
46796,23510
46804,23516
46811,23522
46818,23530
46823,23537
46828,23546
46833,23554
46836,23563
46838,23573
46840,23582
46840,23592
46840,23956
46840,23966
46838,23975
46836,23985
46833,23994
46828,24003
46823,24011
46818,24019
46811,24026
46804,24032
46796,24038
46788,24043
46779,24047
46770,24050
46761,24053
46751,24054
46742,24055
46250,24055
46240,24054
46230,24053
46221,24050
46212,24047
46203,24043
46195,24038
46187,24032
46180,24026
46173,24019
46168,24011
46163,24003
46159,23994
46155,23985
46153,23975
46152,23966
46151,23956
46151,23592
46152,23582
46153,23573
46155,23563
46159,23554
46163,23546
46168,23537
46173,23530
46180,23522
46187,23516
46195,23510
46203,23505
46212,23501
46221,23498
46230,23495
46240,23494
46250,23494
46742,23494
46751,23494
" /> 
<polyline style="fill-rule:evenodd;"
points="46751,22323
46761,22324
46770,22327
46779,22330
46788,22334
46796,22339
46804,22345
46811,22351
46818,22358
46823,22366
46828,22374
46833,22383
46836,22392
46838,22402
46840,22411
46840,22421
46840,22785
46840,22795
46838,22804
46836,22814
46833,22823
46828,22831
46823,22840
46818,22847
46811,22855
46804,22861
46796,22867
46788,22872
46779,22876
46770,22879
46761,22881
46751,22883
46742,22883
46250,22883
46240,22883
46230,22881
46221,22879
46212,22876
46203,22872
46195,22867
46187,22861
46180,22855
46173,22847
46168,22840
46163,22831
46159,22823
46155,22814
46153,22804
46152,22795
46151,22785
46151,22421
46152,22411
46153,22402
46155,22392
46159,22383
46163,22374
46168,22366
46173,22358
46180,22351
46187,22345
46195,22339
46203,22334
46212,22330
46221,22327
46230,22324
46240,22323
46250,22322
46742,22322
46751,22323
" /> 
</g>
<g style="fill:#FFFFFF; fill-opacity:1.0; 
stroke:#FFFFFF; stroke-width:118.11; stroke-opacity:1; 
stroke-linecap:round; stroke-linejoin:round;">
</g>
<g style="fill:#FFFFFF; fill-opacity:0.0; 
stroke:#FFFFFF; stroke-width:118.11; stroke-opacity:1; 
stroke-linecap:round; stroke-linejoin:round;">
<path d="M42440 25314
L42047 25708
" />
<path d="M42440 23813
L42440 25314
" />
<path d="M43671 27716
L45334 27716
" />
<path d="M45334 27716
L45748 27716
" />
<path d="M42047 26092
L43671 27716
" />
<path d="M42047 25708
L42047 26092
" />
<path d="M40728 28216
L41141 28216
" />
<path d="M39837 27325
L40728 28216
" />
<path d="M39837 23735
L39837 27325
" />
<path d="M40572 26591
L39837 27325
" />
<path d="M40572 26012
L40572 26591
" />
<path d="M40875 25708
L40572 26012
" />
<path d="M44291 25511
L44566 25787
" />
<path d="M44291 23809
L44291 25511
" />
<path d="M43987 23505
L44291 23809
" />
<path d="M43838 23356
L43987 23505
" />
<path d="M42080 23356
L43838 23356
" />
<path d="M41589 23847
L42080 23356
" />
<path d="M41589 27357
L41589 23847
" />
<path d="M41230 27716
L41589 27357
" />
<path d="M41141 27716
L41230 27716
" />
<path d="M46496 24094
L46496 23774
" />
<path d="M46496 25029
L45738 25787
" />
<path d="M46496 23774
L46496 25029
" />
<path d="M46161 28216
L45748 28216
" />
<path d="M46220 28157
L46161 28216
" />
<path d="M46220 26269
L46220 28157
" />
<path d="M45738 25787
L46220 26269
" />
<path d="M39837 22244
L39837 22563
" />
<path d="M39837 21107
L39837 22244
" />
<path d="M40196 20748
L39837 21107
" />
<path d="M40669 20748
L40196 20748
" />
<path d="M44291 21440
L44291 22637
" />
<path d="M44984 20748
L44291 21440
" />
<path d="M42445 22637
L42440 22642
" />
<path d="M44291 22637
L42445 22637
" />
<path d="M42440 21519
L41669 20748
" />
<path d="M42440 22642
L42440 21519
" />
<path d="M45338 20393
L44984 20748
" />
<path d="M45515 20216
L45338 20393
" />
<path d="M48267 22003
L46480 20216
" />
<path d="M46480 20216
L45515 20216
" />
<path d="M48267 24448
L48267 22003
" />
<path d="M46456 20748
L45984 20748
" />
<path d="M46496 20787
L46456 20748
" />
<path d="M46496 22603
L46496 20787
" />
<path d="M46161 28716
L45748 28716
" />
<path d="M48267 26610
L46161 28716
" />
<path d="M48267 25448
L48267 26610
" />
<path d="M41141 28716
L45748 28716
" />
</g>
<g style="fill:#FFFFFF; fill-opacity:1.0; 
stroke:#FFFFFF; stroke-width:100; stroke-opacity:1; 
stroke-linecap:round; stroke-linejoin:round;">
<polyline style="fill-rule:evenodd;"
points="49494,30557
38183,30557
38183,29549
38372,29549
38372,29820
38476,30071
38668,30264
38919,30368
39190,30368
39442,30264
39634,30071
39738,29820
39738,29549
47938,29549
47938,29820
48042,30071
48235,30264
48486,30368
48757,30368
49008,30264
49201,30071
49305,29820
49305,29549
49201,29298
49008,29105
48757,29001
48486,29001
48235,29105
48042,29298
47938,29549
39738,29549
39634,29298
39442,29105
39190,29001
38919,29001
38668,29105
38476,29298
38372,29549
38183,29549
38183,28836
40612,28836
40616,28861
40704,29017
40846,29127
41019,29175
41091,29112
41091,28766
41191,28766
41191,29112
41263,29175
41437,29127
41578,29017
41667,28861
41670,28836
45218,28836
45222,28861
45310,29017
45452,29127
45625,29175
45698,29112
45698,28766
45798,28766
45798,29112
45870,29175
46043,29127
46185,29017
46273,28861
46277,28836
46227,28766
45798,28766
45698,28766
45268,28766
45218,28836
41670,28836
41621,28766
41191,28766
41091,28766
40662,28766
40612,28836
38183,28836
38183,22381
39238,22381
39238,22746
39265,22881
39341,22995
39456,23072
39591,23099
40083,23099
40218,23072
40333,22995
40410,22881
40436,22746
40436,22381
40410,22246
40333,22132
40218,22055
40146,22041
40146,21290
40217,21337
40314,21357
41023,21357
41121,21337
41203,21282
41259,21199
41260,21193
41326,21260
41549,21352
41789,21352
41822,21338
42131,21647
42131,22119
42059,22134
41945,22210
41868,22325
41841,22460
41841,22824
41868,22960
41945,23074
41945,23074
41883,23116
41883,23116
41857,23133
41840,23159
41392,23607
41366,23624
41349,23650
41349,23650
41298,23726
41274,23847
41280,23877
41280,25194
41193,25136
41058,25109
40693,25109
40558,25136
40444,25212
40367,25327
40340,25462
40340,25802
40281,25891
40263,25981
40263,25981
40257,26012
40263,26042
40263,26463
40146,26579
40146,24258
40218,24243
40333,24167
40410,24052
40436,23917
40436,23553
40410,23417
40333,23303
40218,23226
40083,23199
39591,23199
39456,23226
39341,23303
39265,23417
39238,23553
39238,23917
39265,24052
39341,24167
39456,24243
39528,24258
39528,27295
39522,27325
39546,27446
39595,27519
39614,27548
39640,27565
40488,28413
40505,28439
40531,28456
40531,28456
40555,28472
40607,28507
40647,28515
40616,28571
40612,28596
40662,28666
40974,28666
41008,28673
41275,28673
41308,28666
41621,28666
41670,28596
41667,28571
41609,28470
41660,28394
41695,28216
41660,28038
41672,28020
41691,27923
41691,27692
41786,27597
41812,27580
41880,27477
41898,27387
41898,27387
41904,27357
41898,27326
41898,26380
43431,27913
43448,27939
43474,27956
43474,27956
43529,27993
43550,28007
43640,28025
43640,28025
43671,28031
43701,28025
45220,28025
45229,28038
45193,28216
45229,28394
45279,28470
45222,28571
45218,28596
45268,28666
45580,28666
45614,28673
45881,28673
45915,28666
46227,28666
46277,28596
46273,28571
46241,28515
46282,28507
46384,28439
46401,28413
46417,28397
46443,28380
46511,28278
46529,28187
46529,28187
46535,28157
46529,28127
46529,26300
46535,26269
46529,26239
46529,26239
46511,26149
46500,26132
46460,26072
46460,26072
46443,26046
46417,26029
46273,25885
46273,25689
46373,25589
47700,25589
47767,25750
47920,25919
48127,26016
48217,25968
48217,25498
48317,25498
48317,25968
48408,26016
48614,25919
48768,25750
48835,25589
48787,25498
48317,25498
48217,25498
47747,25498
47700,25589
46373,25589
46693,25269
46718,25252
46736,25226
46736,25226
46787,25150
46789,25136
46805,25059
46805,25059
46811,25029
46805,24999
46805,24297
46877,24283
46991,24206
47068,24091
47095,23956
47095,23592
47068,23457
46991,23342
46877,23266
46742,23239
46250,23239
46114,23266
46000,23342
45923,23457
45896,23592
45896,23956
45923,24091
46000,24206
46114,24283
46187,24297
46187,24901
45900,25188
45556,25188
45420,25214
45306,25291
45229,25406
45202,25541
45202,26033
45229,26168
45306,26283
45420,26359
45556,26386
45900,26386
45911,26397
45911,27254
45452,27254
45355,27274
45272,27329
45220,27407
43799,27407
42526,26134
42555,26089
42582,25954
42582,25610
42637,25555
42663,25537
42732,25435
42750,25345
42750,25345
42756,25314
42750,25284
42750,24336
42822,24322
42936,24245
43013,24131
43040,23996
43040,23665
43691,23665
43691,23991
43718,24126
43795,24240
43910,24317
43982,24331
43982,25481
43976,25511
44000,25632
44031,25679
44031,26033
44058,26168
44135,26283
44249,26359
44384,26386
44749,26386
44884,26359
44998,26283
45075,26168
45102,26033
45102,25541
45075,25406
44998,25291
44884,25214
44749,25188
44600,25188
44600,24331
44672,24317
44787,24240
44863,24126
44890,23991
44890,23626
44863,23491
44787,23377
44672,23300
44537,23273
44192,23273
44092,23173
44537,23173
44672,23146
44787,23069
44863,22955
44890,22819
44890,22455
44863,22320
44787,22205
44672,22129
44600,22114
44600,21568
44830,21338
44864,21352
45104,21352
45326,21260
45393,21193
45394,21199
45449,21282
45532,21337
45629,21357
46187,21357
46187,22080
46114,22094
46000,22171
45923,22286
45896,22421
45896,22785
45923,22920
46000,23035
46114,23111
46250,23138
46742,23138
46877,23111
46991,23035
47068,22920
47095,22785
47095,22421
47068,22286
46991,22171
46877,22094
46805,22080
46805,20978
47958,22131
47958,23859
47933,23859
47835,23878
47752,23933
47697,24016
47678,24114
47678,24783
47697,24881
47752,24963
47835,25018
47876,25027
47767,25146
47700,25308
47747,25398
48217,25398
48217,25390
48317,25390
48317,25398
48787,25398
48835,25308
48768,25146
48659,25027
48699,25018
48782,24963
48837,24881
48857,24783
48857,24114
48837,24016
48782,23933
48699,23878
48602,23859
48576,23859
48576,22034
48582,22003
48576,21973
48576,21973
48558,21883
48526,21834
48507,21806
48507,21806
48490,21781
48464,21763
46761,20060
47938,20060
47938,20332
48042,20583
48235,20775
48486,20879
48757,20879
49008,20775
49201,20583
49305,20332
49305,20060
49201,19809
49008,19617
48757,19513
48486,19513
48235,19617
48042,19809
47938,20060
46761,20060
46720,20019
46703,19993
46600,19925
46510,19907
46510,19907
46480,19901
46449,19907
45546,19907
45515,19901
45485,19907
45485,19907
45395,19925
45292,19993
45275,20019
45141,20153
45141,20153
45137,20157
45104,20143
44864,20143
44641,20235
44471,20405
44379,20627
44379,20868
44393,20901
44094,21200
44068,21218
44000,21320
43982,21410
43982,21410
43976,21440
43982,21471
43982,22114
43910,22129
43795,22205
43718,22320
43717,22328
43014,22328
43013,22325
42936,22210
42822,22134
42750,22119
42750,21550
42756,21519
42750,21489
42750,21489
42732,21399
42663,21296
42637,21279
42259,20901
42273,20868
42273,20627
42181,20405
42011,20235
41789,20143
41549,20143
41326,20235
41260,20302
41259,20296
41203,20213
41121,20158
41023,20138
40314,20138
40217,20158
40134,20213
40079,20296
40060,20393
40060,20467
39999,20507
39999,20507
39974,20525
39956,20551
39640,20867
39614,20884
39546,20986
39528,21076
39528,21076
39522,21107
39528,21137
39528,22041
39456,22055
39341,22132
39265,22246
39238,22381
38183,22381
38183,20060
38372,20060
38372,20332
38476,20583
38668,20775
38919,20879
39190,20879
39442,20775
39634,20583
39738,20332
39738,20060
39634,19809
39442,19617
39190,19513
38919,19513
38668,19617
38476,19809
38372,20060
38183,20060
38183,19324
49494,19324
49494,30557
" /> 
</g> 
</svg>
